<svg width="26" height="26" viewBox="0 0 26 26" fill="none" xmlns="http://www.w3.org/2000/svg">
<mask id="mask0_5170_158" style="mask-type:alpha" maskUnits="userSpaceOnUse" x="0" y="0" width="26" height="26">
<rect width="26" height="26" fill="#D9D9D9"/>
</mask>
<g mask="url(#mask0_5170_158)">
<path d="M15.1667 22.75C15.4737 22.75 15.731 22.6462 15.9386 22.4385C16.1463 22.2309 16.2501 21.9736 16.2501 21.6666C16.2501 21.3597 16.1463 21.1024 15.9386 20.8948C15.731 20.6871 15.4737 20.5833 15.1667 20.5833C14.8598 20.5833 14.6025 20.6871 14.3949 20.8948C14.1872 21.1024 14.0834 21.3597 14.0834 21.6666C14.0834 21.9736 14.1872 22.2309 14.3949 22.4385C14.6025 22.6462 14.8598 22.75 15.1667 22.75ZM21.6667 11.9166C21.9737 11.9166 22.231 11.8128 22.4386 11.6052C22.6463 11.3975 22.7501 11.1403 22.7501 10.8333C22.7501 10.5264 22.6463 10.2691 22.4386 10.0614C22.231 9.8538 21.9737 9.74998 21.6667 9.74998C21.3598 9.74998 21.1025 9.8538 20.8949 10.0614C20.6872 10.2691 20.5834 10.5264 20.5834 10.8333C20.5834 11.1403 20.6872 11.3975 20.8949 11.6052C21.1025 11.8128 21.3598 11.9166 21.6667 11.9166ZM6.50008 11.9166H11.9167V9.74998H6.50008V11.9166ZM6.50008 16.25H11.9167V14.0833H6.50008V16.25ZM4.33341 21.6666C3.73758 21.6666 3.22751 21.4545 2.80321 21.0302C2.3789 20.6059 2.16675 20.0958 2.16675 19.5V6.49998C2.16675 5.90415 2.3789 5.39408 2.80321 4.96977C3.22751 4.54547 3.73758 4.33331 4.33341 4.33331H21.6667C22.2626 4.33331 22.7727 4.54547 23.197 4.96977C23.6213 5.39408 23.8334 5.90415 23.8334 6.49998H4.33341V19.5H9.75008V21.6666H4.33341ZM15.1667 24.9166C14.264 24.9166 13.4966 24.6007 12.8647 23.9687C12.2327 23.3368 11.9167 22.5694 11.9167 21.6666C11.9167 20.9625 12.1199 20.3305 12.5261 19.7708C12.9324 19.2111 13.4515 18.8229 14.0834 18.6062V15.1666H20.5834V13.8937C19.9515 13.6771 19.4324 13.2889 19.0261 12.7291C18.6199 12.1694 18.4167 11.5375 18.4167 10.8333C18.4167 9.93054 18.7327 9.16317 19.3647 8.53123C19.9966 7.89929 20.764 7.58331 21.6667 7.58331C22.5695 7.58331 23.3369 7.89929 23.9688 8.53123C24.6008 9.16317 24.9167 9.93054 24.9167 10.8333C24.9167 11.5375 24.7136 12.1694 24.3074 12.7291C23.9011 13.2889 23.382 13.6771 22.7501 13.8937V17.3333H16.2501V18.6062C16.882 18.8229 17.4011 19.2111 17.8074 19.7708C18.2136 20.3305 18.4167 20.9625 18.4167 21.6666C18.4167 22.5694 18.1008 23.3368 17.4688 23.9687C16.8369 24.6007 16.0695 24.9166 15.1667 24.9166Z" fill="#8E9FBC"/>
</g>
</svg>