<svg xmlns="http://www.w3.org/2000/svg" width="26" height="26" viewBox="0 0 26 26" fill="none">
<mask id="mask0_4874_779" style="mask-type:alpha" maskUnits="userSpaceOnUse" x="0" y="0" width="26" height="26">
<rect width="26" height="26" fill="#D9D9D9"/>
</mask>
<g mask="url(#mask0_4874_779)">
<path d="M8.66634 21.6666V19.5271H10.833V6.49998H8.66634V4.33331H10.833C11.4288 4.33331 11.9389 4.54547 12.3632 4.96977C12.7875 5.39408 12.9997 5.90415 12.9997 6.49998V19.5C12.9997 20.0958 12.7875 20.6059 12.3632 21.0302C11.9389 21.4545 11.4288 21.6666 10.833 21.6666H8.66634ZM17.333 21.6666C16.7372 21.6666 16.2271 21.4545 15.8028 21.0302C15.3785 20.6059 15.1663 20.0958 15.1663 19.5V6.49998C15.1663 5.90415 15.3785 5.39408 15.8028 4.96977C16.2271 4.54547 16.7372 4.33331 17.333 4.33331H22.7497C23.3455 4.33331 23.8556 4.54547 24.2799 4.96977C24.7042 5.39408 24.9163 5.90415 24.9163 6.49998V19.5C24.9163 20.0958 24.7042 20.6059 24.2799 21.0302C23.8556 21.4545 23.3455 21.6666 22.7497 21.6666H17.333ZM17.333 19.5271H22.7497V6.49998H17.333V19.5271ZM5.41634 17.3333L3.87259 15.8166L5.57884 14.0833H1.08301V11.9166H5.57884L3.87259 10.2104L5.41634 8.66665L9.74967 13L5.41634 17.3333Z" fill="#8E9FBC"/>
</g>
</svg>