<svg width="40" height="40" viewBox="0 0 40 40" fill="none" xmlns="http://www.w3.org/2000/svg">
<g id="arrow_circle_left">
<mask id="mask0_1_149" style="mask-type:alpha" maskUnits="userSpaceOnUse" x="0" y="0" width="40" height="40">
<rect id="Bounding box" x="40" y="40" width="40" height="40" transform="rotate(180 40 40)" fill="#D9D9D9"/>
</mask>
<g mask="url(#mask0_1_149)">
<path id="arrow_circle_left_2" d="M20.0007 13.0906L13.927 19.1649L20.0007 25.2393L21.741 23.4987L18.6576 20.415H26.2506V17.9148H18.6576L21.741 14.8311L20.0007 13.0906ZM19.9979 3.32994C22.1878 3.32994 24.2462 3.74554 26.1731 4.57674C28.1 5.40794 29.7761 6.53598 31.2015 7.96085C32.6269 9.38576 33.7553 11.0613 34.5868 12.9876C35.4182 14.9138 35.834 16.972 35.834 19.1621C35.834 21.3523 35.4184 23.4109 34.5873 25.338C33.7562 27.2651 32.6283 28.9414 31.2036 30.3669C29.7788 31.7925 28.1034 32.921 26.1774 33.7526C24.2513 34.5842 22.1934 34.9999 20.0035 34.9999C17.8136 34.9999 15.7552 34.5843 13.8283 33.7531C11.9014 32.9219 10.2253 31.7939 8.7999 30.369C7.37451 28.9441 6.24608 27.2685 5.4146 25.3423C4.58313 23.416 4.1674 21.3579 4.1674 19.1677C4.1674 16.9776 4.58295 14.919 5.41406 12.9919C6.24518 11.0648 7.37309 9.38845 8.79781 7.96294C10.2226 6.5374 11.898 5.40885 13.824 4.57729C15.75 3.74572 17.808 3.32994 19.9979 3.32994Z" fill="#26335B"/>
</g>
</g>
</svg>
