<svg xmlns="http://www.w3.org/2000/svg" width="20" height="23" viewBox="0 0 20 23" fill="none">
<path d="M2.16667 22.75C1.57083 22.75 1.06076 22.5378 0.636458 22.1135C0.212153 21.6892 0 21.1792 0 20.5833V7.58333C0 6.9875 0.212153 6.47743 0.636458 6.05313C1.06076 5.62882 1.57083 5.41667 2.16667 5.41667H4.33333C4.33333 3.91806 4.86146 2.64062 5.91771 1.58438C6.97396 0.528125 8.25139 0 9.75 0C11.2486 0 12.526 0.528125 13.5823 1.58438C14.6385 2.64062 15.1667 3.91806 15.1667 5.41667H17.3333C17.9292 5.41667 18.4392 5.62882 18.8635 6.05313C19.2878 6.47743 19.5 6.9875 19.5 7.58333V20.5833C19.5 21.1792 19.2878 21.6892 18.8635 22.1135C18.4392 22.5378 17.9292 22.75 17.3333 22.75H2.16667ZM2.16667 20.5833H17.3333V7.58333H2.16667V20.5833ZM9.75 14.0833C11.2486 14.0833 12.526 13.5552 13.5823 12.499C14.6385 11.4427 15.1667 10.1653 15.1667 8.66667H13C13 9.56944 12.684 10.3368 12.0521 10.9688C11.4201 11.6007 10.6528 11.9167 9.75 11.9167C8.84722 11.9167 8.07986 11.6007 7.44792 10.9688C6.81597 10.3368 6.5 9.56944 6.5 8.66667H4.33333C4.33333 10.1653 4.86146 11.4427 5.91771 12.499C6.97396 13.5552 8.25139 14.0833 9.75 14.0833ZM6.5 5.41667H13C13 4.51389 12.684 3.74653 12.0521 3.11458C11.4201 2.48264 10.6528 2.16667 9.75 2.16667C8.84722 2.16667 8.07986 2.48264 7.44792 3.11458C6.81597 3.74653 6.5 4.51389 6.5 5.41667Z" fill="#8E9FBC"/>
</svg>