<svg width="40" height="40" viewBox="0 0 40 40" fill="none" xmlns="http://www.w3.org/2000/svg">
<g id="arrow_circle_right">
<mask id="mask0_1_146" style="mask-type:alpha" maskUnits="userSpaceOnUse" x="0" y="0" width="40" height="40">
<rect id="Bounding box" width="40" height="40" fill="#D9D9D9"/>
</mask>
<g mask="url(#mask0_1_146)">
<path id="arrow_circle_right_2" d="M19.8333 26.9094L25.907 20.8351L19.8333 14.7607L18.093 16.5013L21.1763 19.585H13.5833V22.0852H21.1763L18.093 25.1689L19.8333 26.9094ZM19.8361 36.6701C17.6462 36.6701 15.5878 36.2545 13.6609 35.4233C11.734 34.5921 10.0579 33.464 8.6325 32.0391C7.20711 30.6142 6.07868 28.9387 5.24721 27.0124C4.41574 25.0862 4 23.028 4 20.8379C4 18.6477 4.41556 16.5891 5.24667 14.662C6.07778 12.7349 7.20569 11.0586 8.63042 9.63306C10.0552 8.20752 11.7306 7.07897 13.6566 6.2474C15.5827 5.41584 17.6406 5.00006 19.8305 5.00006C22.0204 5.00006 24.0788 5.41566 26.0057 6.24686C27.9326 7.07806 29.6087 8.2061 31.0341 9.63098C32.4595 11.0559 33.5879 12.7315 34.4194 14.6577C35.2509 16.584 35.6666 18.6421 35.6666 20.8323C35.6666 23.0224 35.251 25.081 34.4199 27.0081C33.5888 28.9352 32.4609 30.6115 31.0362 32.0371C29.6114 33.4626 27.936 34.5912 26.01 35.4227C24.0839 36.2543 22.026 36.6701 19.8361 36.6701Z" fill="#26335B"/>
</g>
</g>
</svg>
