<svg width="22" height="18" viewBox="0 0 22 18" fill="none" xmlns="http://www.w3.org/2000/svg">
<path d="M4.33333 14.0833H17.3333V10.8333H4.33333V14.0833ZM2.16667 17.3333C1.57083 17.3333 1.06076 17.1212 0.636458 16.6969C0.212153 16.2726 0 15.7625 0 15.1667V2.16667C0 1.57083 0.212153 1.06076 0.636458 0.636458C1.06076 0.212153 1.57083 0 2.16667 0H19.5C20.0958 0 20.6059 0.212153 21.0302 0.636458C21.4545 1.06076 21.6667 1.57083 21.6667 2.16667V15.1667C21.6667 15.7625 21.4545 16.2726 21.0302 16.6969C20.6059 17.1212 20.0958 17.3333 19.5 17.3333H2.16667ZM2.16667 15.1667H19.5V2.16667H2.16667V15.1667Z" fill="#8E9FBC"/>
</svg>
