<svg width="12" height="14" viewBox="0 0 12 14" fill="none" xmlns="http://www.w3.org/2000/svg">
<path d="M1.44616 13.8572C1.04206 13.8572 0.700002 13.7309 0.420001 13.4782C0.14 13.2256 0 12.917 0 12.5524V4.33492C0 3.97031 0.14 3.66169 0.420001 3.40906C0.700002 3.15642 1.04206 3.03011 1.44616 3.03011H3.00001V2.84966C3.00001 2.10194 3.29283 1.46388 3.87847 0.935481C4.4641 0.407082 5.17128 0.142883 6 0.142883C6.82872 0.142883 7.5359 0.407082 8.12153 0.935481C8.70717 1.46388 8.99999 2.10194 8.99999 2.84966V3.03011H10.5538C10.9579 3.03011 11.3 3.15642 11.58 3.40906C11.86 3.66169 12 3.97031 12 4.33492V12.5524C12 12.917 11.86 13.2256 11.58 13.4782C11.3 13.7309 10.9579 13.8572 10.5538 13.8572H1.44616ZM3.59999 6.27822C3.77025 6.27822 3.91281 6.2264 4.02767 6.12276C4.14254 6.01912 4.19997 5.89049 4.19997 5.73688V4.1128H3.00001V5.73688C3.00001 5.89049 3.05744 6.01912 3.17231 6.12276C3.28718 6.2264 3.42974 6.27822 3.59999 6.27822ZM4.19997 3.03011H7.80002V2.84966C7.80002 2.39713 7.6254 2.01332 7.27616 1.69823C6.92694 1.38313 6.50155 1.22557 6 1.22557C5.49845 1.22557 5.07306 1.38313 4.72383 1.69823C4.37459 2.01332 4.19997 2.39713 4.19997 2.84966V3.03011ZM8.40001 6.27822C8.57026 6.27822 8.71282 6.2264 8.82769 6.12276C8.94256 6.01912 8.99999 5.89049 8.99999 5.73688V4.1128H7.80002V5.73688C7.80002 5.89049 7.85746 6.01912 7.97233 6.12276C8.08719 6.2264 8.22975 6.27822 8.40001 6.27822Z" fill="white"/>
</svg>
